<mxfile host="drawio-plugin" modified="2024-03-22T11:45:42.371Z" agent="5.0 (Windows NT 10.0; Win64; x64) AppleWebKit/537.36 (KHTML, like Gecko) Chrome/111.0.0.0 Safari/537.36" etag="VIeJ0_k1w9Mv8JH8N-9t" version="20.5.3" type="embed"><diagram id="23iRSUPoRavnBvh4doch" name="Page-1"><mxGraphModel dx="1021" dy="824" grid="1" gridSize="10" guides="1" tooltips="1" connect="1" arrows="1" fold="1" page="1" pageScale="1" pageWidth="827" pageHeight="1169" math="0" shadow="0"><root><mxCell id="0"/><mxCell id="1" parent="0"/><mxCell id="2" value="&lt;p style=&quot;margin:0px;margin-top:4px;text-align:center;&quot;&gt;&lt;i&gt;&amp;lt;&amp;lt;Interface&amp;gt;&amp;gt;&lt;/i&gt;&lt;br&gt;&lt;b&gt;CarVisitor&lt;/b&gt;&lt;/p&gt;&lt;hr size=&quot;1&quot;&gt;&lt;p style=&quot;margin:0px;margin-left:4px;&quot;&gt;&lt;span style=&quot;background-color: initial;&quot;&gt;+ visit(body: Body)&lt;/span&gt;&lt;br&gt;&lt;/p&gt;&lt;p style=&quot;margin:0px;margin-left:4px;&quot;&gt;+ visit(engine: Engine)&lt;br&gt;+ visit(wheels: List&amp;lt;Wheel&amp;gt;)&lt;/p&gt;&lt;p style=&quot;margin:0px;margin-left:4px;&quot;&gt;&lt;br&gt;&lt;/p&gt;" style="verticalAlign=top;align=left;overflow=fill;fontSize=12;fontFamily=Helvetica;html=1;" parent="1" vertex="1"><mxGeometry x="510" y="200" width="180" height="100" as="geometry"/></mxCell><mxCell id="3" value="&lt;p style=&quot;margin:0px;margin-top:4px;text-align:center;&quot;&gt;&lt;i&gt;&amp;lt;&amp;lt;Interface&amp;gt;&amp;gt;&lt;/i&gt;&lt;br&gt;&lt;b&gt;CarElement&lt;/b&gt;&lt;/p&gt;&lt;hr size=&quot;1&quot;&gt;&lt;p style=&quot;margin:0px;margin-left:4px;&quot;&gt;&lt;span style=&quot;background-color: initial;&quot;&gt;+ accept(visitor: CarVisitor)&lt;/span&gt;&lt;br&gt;&lt;/p&gt;" style="verticalAlign=top;align=left;overflow=fill;fontSize=12;fontFamily=Helvetica;html=1;" parent="1" vertex="1"><mxGeometry x="140" y="200" width="160" height="70" as="geometry"/></mxCell><mxCell id="4" value="Body" style="swimlane;fontStyle=1;align=center;verticalAlign=top;childLayout=stackLayout;horizontal=1;startSize=26;horizontalStack=0;resizeParent=1;resizeParentMax=0;resizeLast=0;collapsible=1;marginBottom=0;" parent="1" vertex="1"><mxGeometry x="20" y="600" width="160" height="56" as="geometry"/></mxCell><mxCell id="7" value="+ accept(visitor: CarVisitor)" style="text;strokeColor=none;fillColor=none;align=left;verticalAlign=top;spacingLeft=4;spacingRight=4;overflow=hidden;rotatable=0;points=[[0,0.5],[1,0.5]];portConstraint=eastwest;" parent="4" vertex="1"><mxGeometry y="26" width="160" height="30" as="geometry"/></mxCell><mxCell id="8" value="Wheel" style="swimlane;fontStyle=1;align=center;verticalAlign=top;childLayout=stackLayout;horizontal=1;startSize=26;horizontalStack=0;resizeParent=1;resizeParentMax=0;resizeLast=0;collapsible=1;marginBottom=0;" parent="1" vertex="1"><mxGeometry x="140" y="680" width="160" height="56" as="geometry"/></mxCell><mxCell id="11" value="+ accept(visitor: CarVisitor)" style="text;strokeColor=none;fillColor=none;align=left;verticalAlign=top;spacingLeft=4;spacingRight=4;overflow=hidden;rotatable=0;points=[[0,0.5],[1,0.5]];portConstraint=eastwest;" parent="8" vertex="1"><mxGeometry y="26" width="160" height="30" as="geometry"/></mxCell><mxCell id="12" value="Engine" style="swimlane;fontStyle=1;align=center;verticalAlign=top;childLayout=stackLayout;horizontal=1;startSize=26;horizontalStack=0;resizeParent=1;resizeParentMax=0;resizeLast=0;collapsible=1;marginBottom=0;" parent="1" vertex="1"><mxGeometry x="260" y="600" width="160" height="56" as="geometry"/></mxCell><mxCell id="15" value="+ accept(visitor: CarVisitor)" style="text;strokeColor=none;fillColor=none;align=left;verticalAlign=top;spacingLeft=4;spacingRight=4;overflow=hidden;rotatable=0;points=[[0,0.5],[1,0.5]];portConstraint=eastwest;" parent="12" vertex="1"><mxGeometry y="26" width="160" height="30" as="geometry"/></mxCell><mxCell id="20" value="Actor" style="shape=umlActor;verticalLabelPosition=bottom;verticalAlign=top;html=1;outlineConnect=0;" parent="1" vertex="1"><mxGeometry x="399" y="40" width="41" height="80" as="geometry"/></mxCell><mxCell id="23" value="CarDiagnostic" style="swimlane;fontStyle=1;align=center;verticalAlign=top;childLayout=stackLayout;horizontal=1;startSize=26;horizontalStack=0;resizeParent=1;resizeParentMax=0;resizeLast=0;collapsible=1;marginBottom=0;" parent="1" vertex="1"><mxGeometry x="580" y="400" width="180" height="80" as="geometry"/></mxCell><mxCell id="26" value="+ visit(body: Body)&#10;+ visit(engine: Engine)&#10;+ visit(wheels: List&lt;Wheel&gt;)&#10;" style="text;strokeColor=none;fillColor=none;align=left;verticalAlign=top;spacingLeft=4;spacingRight=4;overflow=hidden;rotatable=0;points=[[0,0.5],[1,0.5]];portConstraint=eastwest;" parent="23" vertex="1"><mxGeometry y="26" width="180" height="54" as="geometry"/></mxCell><mxCell id="27" value="" style="endArrow=block;dashed=1;endFill=0;endSize=12;html=1;rounded=0;exitX=0.5;exitY=0;exitDx=0;exitDy=0;entryX=0.5;entryY=1;entryDx=0;entryDy=0;edgeStyle=orthogonalEdgeStyle;" parent="1" source="23" target="2" edge="1"><mxGeometry width="160" relative="1" as="geometry"><mxPoint x="540" y="310" as="sourcePoint"/><mxPoint x="700" y="310" as="targetPoint"/></mxGeometry></mxCell><mxCell id="28" value="Use" style="endArrow=open;endSize=12;dashed=1;html=1;rounded=0;exitX=1;exitY=0.25;exitDx=0;exitDy=0;entryX=-0.004;entryY=0.171;entryDx=0;entryDy=0;entryPerimeter=0;" parent="1" source="3" target="2" edge="1"><mxGeometry width="160" relative="1" as="geometry"><mxPoint x="350" y="350" as="sourcePoint"/><mxPoint x="510" y="350" as="targetPoint"/></mxGeometry></mxCell><mxCell id="29" value="Use" style="endArrow=open;endSize=12;dashed=1;html=1;rounded=0;exitX=0;exitY=0.3333333333333333;exitDx=0;exitDy=0;exitPerimeter=0;entryX=0.5;entryY=0;entryDx=0;entryDy=0;edgeStyle=orthogonalEdgeStyle;" parent="1" source="20" target="3" edge="1"><mxGeometry width="160" relative="1" as="geometry"><mxPoint x="450" y="370" as="sourcePoint"/><mxPoint x="610" y="370" as="targetPoint"/></mxGeometry></mxCell><mxCell id="30" value="AbstractCarElement" style="swimlane;fontStyle=1;align=center;verticalAlign=top;childLayout=stackLayout;horizontal=1;startSize=26;horizontalStack=0;resizeParent=1;resizeParentMax=0;resizeLast=0;collapsible=1;marginBottom=0;" parent="1" vertex="1"><mxGeometry x="120" y="380" width="200" height="100" as="geometry"/></mxCell><mxCell id="31" value="- name: String" style="text;strokeColor=none;fillColor=none;align=left;verticalAlign=top;spacingLeft=4;spacingRight=4;overflow=hidden;rotatable=0;points=[[0,0.5],[1,0.5]];portConstraint=eastwest;" parent="30" vertex="1"><mxGeometry y="26" width="200" height="26" as="geometry"/></mxCell><mxCell id="32" value="" style="line;strokeWidth=1;fillColor=none;align=left;verticalAlign=middle;spacingTop=-1;spacingLeft=3;spacingRight=3;rotatable=0;labelPosition=right;points=[];portConstraint=eastwest;strokeColor=inherit;" parent="30" vertex="1"><mxGeometry y="52" width="200" height="8" as="geometry"/></mxCell><mxCell id="33" value="+ AbstractCarElement(name:String)&#10; : AbstractCarElement" style="text;strokeColor=none;fillColor=none;align=left;verticalAlign=top;spacingLeft=4;spacingRight=4;overflow=hidden;rotatable=0;points=[[0,0.5],[1,0.5]];portConstraint=eastwest;fontStyle=0" parent="30" vertex="1"><mxGeometry y="60" width="200" height="40" as="geometry"/></mxCell><mxCell id="34" value="" style="endArrow=block;dashed=1;endFill=0;endSize=12;html=1;rounded=0;exitX=0.5;exitY=0;exitDx=0;exitDy=0;entryX=0.5;entryY=1;entryDx=0;entryDy=0;" parent="1" source="30" target="3" edge="1"><mxGeometry width="160" relative="1" as="geometry"><mxPoint x="200" y="400" as="sourcePoint"/><mxPoint x="360" y="400" as="targetPoint"/></mxGeometry></mxCell><mxCell id="35" value="Extends" style="endArrow=block;endSize=16;endFill=0;html=1;rounded=0;exitX=0.5;exitY=0;exitDx=0;exitDy=0;entryX=0.205;entryY=1;entryDx=0;entryDy=0;entryPerimeter=0;edgeStyle=orthogonalEdgeStyle;" parent="1" source="4" target="33" edge="1"><mxGeometry x="-0.116" width="160" relative="1" as="geometry"><mxPoint x="270" y="500" as="sourcePoint"/><mxPoint x="430" y="500" as="targetPoint"/><Array as="points"><mxPoint x="100" y="550"/><mxPoint x="161" y="550"/></Array><mxPoint as="offset"/></mxGeometry></mxCell><mxCell id="36" value="Extends" style="endArrow=block;endSize=16;endFill=0;html=1;rounded=0;exitX=0.5;exitY=0;exitDx=0;exitDy=0;entryX=0.5;entryY=1.1;entryDx=0;entryDy=0;entryPerimeter=0;edgeStyle=orthogonalEdgeStyle;" parent="1" source="8" target="33" edge="1"><mxGeometry width="160" relative="1" as="geometry"><mxPoint x="270" y="500" as="sourcePoint"/><mxPoint x="430" y="500" as="targetPoint"/><Array as="points"><mxPoint x="220" y="630"/><mxPoint x="220" y="630"/></Array></mxGeometry></mxCell><mxCell id="37" value="Extends" style="endArrow=block;endSize=16;endFill=0;html=1;rounded=0;exitX=0.5;exitY=0;exitDx=0;exitDy=0;entryX=0.8;entryY=1.1;entryDx=0;entryDy=0;entryPerimeter=0;edgeStyle=orthogonalEdgeStyle;" parent="1" source="12" target="33" edge="1"><mxGeometry width="160" relative="1" as="geometry"><mxPoint x="270" y="500" as="sourcePoint"/><mxPoint x="430" y="500" as="targetPoint"/><Array as="points"><mxPoint x="340" y="550"/><mxPoint x="280" y="550"/></Array></mxGeometry></mxCell><mxCell id="38" value="Use" style="endArrow=open;endSize=12;dashed=1;html=1;rounded=0;edgeStyle=orthogonalEdgeStyle;entryX=0.544;entryY=1.033;entryDx=0;entryDy=0;entryPerimeter=0;" edge="1" parent="1" target="15"><mxGeometry width="160" relative="1" as="geometry"><mxPoint x="510" y="240" as="sourcePoint"/><mxPoint x="340" y="710" as="targetPoint"/><Array as="points"><mxPoint x="460" y="240"/><mxPoint x="460" y="720"/><mxPoint x="347" y="720"/></Array></mxGeometry></mxCell><mxCell id="39" value="Use" style="endArrow=open;endSize=12;dashed=1;html=1;rounded=0;entryX=0.481;entryY=1.167;entryDx=0;entryDy=0;entryPerimeter=0;edgeStyle=orthogonalEdgeStyle;exitX=-0.003;exitY=0.594;exitDx=0;exitDy=0;exitPerimeter=0;" edge="1" parent="1" source="2" target="11"><mxGeometry width="160" relative="1" as="geometry"><mxPoint x="480" y="260" as="sourcePoint"/><mxPoint x="460" y="580" as="targetPoint"/><Array as="points"><mxPoint x="480" y="259"/><mxPoint x="480" y="780"/><mxPoint x="217" y="780"/></Array></mxGeometry></mxCell><mxCell id="41" value="Use" style="endArrow=open;endSize=12;dashed=1;html=1;rounded=0;entryX=0.475;entryY=1.167;entryDx=0;entryDy=0;entryPerimeter=0;edgeStyle=orthogonalEdgeStyle;exitX=0.002;exitY=0.811;exitDx=0;exitDy=0;exitPerimeter=0;" edge="1" parent="1" source="2" target="7"><mxGeometry width="160" relative="1" as="geometry"><mxPoint x="500" y="280" as="sourcePoint"/><mxPoint x="460" y="580" as="targetPoint"/><Array as="points"><mxPoint x="500" y="281"/><mxPoint x="500" y="800"/><mxPoint x="96" y="800"/></Array></mxGeometry></mxCell></root></mxGraphModel></diagram></mxfile>